<?xml version="1.0" encoding="UTF-8" standalone="no"?> <!-- Created with Vectornator for iOS (http://vectornator.io/) --><!DOCTYPE svg PUBLIC "-//W3C//DTD SVG 1.1//EN" "http://www.w3.org/Graphics/SVG/1.1/DTD/svg11.dtd">
<svg style="fill-rule:evenodd;clip-rule:evenodd;stroke-linecap:round;stroke-linejoin:round;" xmlns:vectornator="http://vectornator.io" xmlns:xlink="http://www.w3.org/1999/xlink" xmlns="http://www.w3.org/2000/svg" xml:space="preserve" version="1.1" viewBox="0 0 800 400">
<metadata>
<vectornator:setting key="DimensionsVisible" value="1"/>
<vectornator:setting key="New" value="1"/>
<vectornator:setting key="SnapToPoints" value="1"/>
<vectornator:setting key="GuidesVisible" value="1"/>
<vectornator:setting key="RulersVisible" value="1"/>
<vectornator:setting key="CMYKEnabledKey" value="0"/>
<vectornator:setting key="SnapToEdges" value="1"/>
<vectornator:setting key="DisplayWhiteBackground" value="0"/>
<vectornator:setting key="SnapToGuides" value="1"/>
<vectornator:setting key="GridSpacing" value="36"/>
<vectornator:setting key="Units" value="Pixels"/>
<vectornator:setting key="DynamicGuides" value="1"/>
<vectornator:setting key="SnapToGrid" value="0"/>
</metadata>
<defs>
<linearGradient y1="95.2265" id="LinearGradient" x1="48.9266" y2="95.045" x2="570.137" gradientUnits="userSpaceOnUse" gradientTransform="matrix(1.21035 0 0 0.805734 21.4409 219.352)">
<stop stop-color="#2c5751" offset="0.0703883"/>
<stop stop-color="#080b22" offset="0.550971"/>
<stop stop-color="#000000" offset="1"/>
</linearGradient>
<linearGradient y1="296.008" id="LinearGradient_2" x1="279.485" y2="336.146" x2="575.924" gradientUnits="userSpaceOnUse" gradientTransform="matrix(-1.13709 0.249679 -0.0250894 -0.0375267 961.01 196.426)">
<stop stop-color="#161a4f" offset="0.621359"/>
<stop stop-opacity="0" stop-color="#ffffff" offset="1"/>
</linearGradient>
<linearGradient y1="78.2847" id="LinearGradient_3" x1="178.828" y2="104.583" x2="592.225" gradientUnits="userSpaceOnUse" gradientTransform="matrix(-0.44778 -0.422525 0.0714949 -0.0888714 615.331 382.95)">
<stop stop-color="#161a4f" offset="0.621359"/>
<stop stop-opacity="0" stop-color="#ffffff" offset="1"/>
</linearGradient>
<linearGradient y1="45.1642" id="LinearGradient_4" x1="257.261" y2="42.9617" x2="612" gradientUnits="userSpaceOnUse" gradientTransform="matrix(0.792646 -0.178505 0.252991 0.535012 18.7952 251.672)">
<stop stop-color="#161a4f" offset="0.621359"/>
<stop stop-opacity="0" stop-color="#ffffff" offset="1"/>
</linearGradient>
<linearGradient y1="97.6851" id="LinearGradient_5" x1="339.55" y2="97.6851" x2="641.691" gradientUnits="userSpaceOnUse" gradientTransform="matrix(-0.86865 0.368551 -0.390579 -0.920569 762.077 194.968)">
<stop stop-color="#161a4f" offset="0.621359"/>
<stop stop-opacity="0" stop-color="#ffffff" offset="1"/>
</linearGradient>
<linearGradient y1="85.9897" id="LinearGradient_6" x1="790.915" y2="155.924" x2="790.472" gradientUnits="userSpaceOnUse" gradientTransform="matrix(1.10571 0 0 1.01492 -385.065 110.021)">
<stop stop-color="#358076" offset="0.0679612"/>
<stop stop-color="#0a0f33" offset="0.519417"/>
<stop stop-color="#000000" offset="1"/>
</linearGradient>
<linearGradient y1="85.9897" id="LinearGradient_7" x1="790.915" y2="155.924" x2="790.472" gradientUnits="userSpaceOnUse" gradientTransform="matrix(1.10571 0 0 1.01492 -385.065 110.021)">
<stop stop-color="#358076" offset="0.0679612"/>
<stop stop-color="#0a0f33" offset="0.519417"/>
<stop stop-color="#000000" offset="1"/>
</linearGradient>
<linearGradient y1="85.9897" id="LinearGradient_8" x1="790.915" y2="155.924" x2="790.472" gradientUnits="userSpaceOnUse" gradientTransform="matrix(1.10571 0 0 1.01492 -385.065 110.021)">
<stop stop-color="#358076" offset="0.0679612"/>
<stop stop-color="#0a0f33" offset="0.519417"/>
<stop stop-color="#000000" offset="1"/>
</linearGradient>
<linearGradient y1="85.9897" id="LinearGradient_9" x1="790.915" y2="155.924" x2="790.472" gradientUnits="userSpaceOnUse" gradientTransform="matrix(1.10571 0 0 1.01492 -385.065 110.021)">
<stop stop-color="#358076" offset="0.0679612"/>
<stop stop-color="#0a0f33" offset="0.519417"/>
<stop stop-color="#000000" offset="1"/>
</linearGradient>
<linearGradient y1="85.9897" id="LinearGradient_10" x1="790.915" y2="155.924" x2="790.472" gradientUnits="userSpaceOnUse" gradientTransform="matrix(1.10571 0 0 1.01492 -385.065 110.021)">
<stop stop-color="#358076" offset="0.0679612"/>
<stop stop-color="#0a0f33" offset="0.519417"/>
<stop stop-color="#000000" offset="1"/>
</linearGradient>
<linearGradient y1="85.9897" id="LinearGradient_11" x1="790.915" y2="155.924" x2="790.472" gradientUnits="userSpaceOnUse" gradientTransform="matrix(1.10571 0 0 1.01492 -385.065 110.021)">
<stop stop-color="#358076" offset="0.0679612"/>
<stop stop-color="#0a0f33" offset="0.519417"/>
<stop stop-color="#000000" offset="1"/>
</linearGradient>
<linearGradient y1="85.9897" id="LinearGradient_12" x1="790.915" y2="155.924" x2="790.472" gradientUnits="userSpaceOnUse" gradientTransform="matrix(1.10571 0 0 1.01492 -385.065 110.021)">
<stop stop-color="#358076" offset="0.0679612"/>
<stop stop-color="#0a0f33" offset="0.519417"/>
<stop stop-color="#000000" offset="1"/>
</linearGradient>
<linearGradient y1="85.9897" id="LinearGradient_13" x1="790.915" y2="155.924" x2="790.472" gradientUnits="userSpaceOnUse" gradientTransform="matrix(1.10571 0 0 1.01492 -385.065 110.021)">
<stop stop-color="#358076" offset="0.0679612"/>
<stop stop-color="#0a0f33" offset="0.519417"/>
<stop stop-color="#000000" offset="1"/>
</linearGradient>
<linearGradient y1="85.9897" id="LinearGradient_14" x1="790.915" y2="155.924" x2="790.472" gradientUnits="userSpaceOnUse" gradientTransform="matrix(1.10571 0 0 1.01492 -385.065 110.021)">
<stop stop-color="#358076" offset="0.0679612"/>
<stop stop-color="#0a0f33" offset="0.519417"/>
<stop stop-color="#000000" offset="1"/>
</linearGradient>
<linearGradient y1="117.097" id="LinearGradient_15" x1="403.113" y2="113.601" x2="70.7279" gradientUnits="userSpaceOnUse" gradientTransform="matrix(1.31854e-08 -1.01492 1.10571 1.21028e-08 64.0695 460.378)">
<stop stop-color="#718581" offset="0.0825243"/>
<stop stop-color="#4379ab" offset="0.604369"/>
<stop stop-color="#030507" offset="0.98301"/>
<stop stop-color="#050e0f" offset="1"/>
</linearGradient>
<linearGradient y1="91.031" id="LinearGradient_16" x1="790.647" y2="158.299" x2="790.647" gradientUnits="userSpaceOnUse" gradientTransform="matrix(1.10571 0 0 1.01492 -386.649 107.611)">
<stop stop-color="#358076" offset="0.0679612"/>
<stop stop-color="#0a0f33" offset="0.519417"/>
<stop stop-color="#000000" offset="1"/>
</linearGradient>
<linearGradient y1="91.031" id="LinearGradient_17" x1="790.647" y2="158.299" x2="790.647" gradientUnits="userSpaceOnUse" gradientTransform="matrix(1.10571 0 0 1.01492 -386.649 107.611)">
<stop stop-color="#358076" offset="0.0679612"/>
<stop stop-color="#0a0f33" offset="0.519417"/>
<stop stop-color="#000000" offset="1"/>
</linearGradient>
<linearGradient y1="91.031" id="LinearGradient_18" x1="790.647" y2="158.299" x2="790.647" gradientUnits="userSpaceOnUse" gradientTransform="matrix(1.10571 0 0 1.01492 -386.649 107.611)">
<stop stop-color="#358076" offset="0.0679612"/>
<stop stop-color="#0a0f33" offset="0.519417"/>
<stop stop-color="#000000" offset="1"/>
</linearGradient>
<linearGradient y1="91.031" id="LinearGradient_19" x1="790.647" y2="158.299" x2="790.647" gradientUnits="userSpaceOnUse" gradientTransform="matrix(1.10571 0 0 1.01492 -386.649 107.611)">
<stop stop-color="#358076" offset="0.0679612"/>
<stop stop-color="#0a0f33" offset="0.519417"/>
<stop stop-color="#000000" offset="1"/>
</linearGradient>
<linearGradient y1="91.031" id="LinearGradient_20" x1="790.647" y2="158.299" x2="790.647" gradientUnits="userSpaceOnUse" gradientTransform="matrix(1.10571 0 0 1.01492 -386.649 107.611)">
<stop stop-color="#358076" offset="0.0679612"/>
<stop stop-color="#0a0f33" offset="0.519417"/>
<stop stop-color="#000000" offset="1"/>
</linearGradient>
<linearGradient y1="91.031" id="LinearGradient_21" x1="790.647" y2="158.299" x2="790.647" gradientUnits="userSpaceOnUse" gradientTransform="matrix(1.10571 0 0 1.01492 -386.649 107.611)">
<stop stop-color="#358076" offset="0.0679612"/>
<stop stop-color="#0a0f33" offset="0.519417"/>
<stop stop-color="#000000" offset="1"/>
</linearGradient>
<linearGradient y1="91.031" id="LinearGradient_22" x1="790.647" y2="158.299" x2="790.647" gradientUnits="userSpaceOnUse" gradientTransform="matrix(1.10571 0 0 1.01492 -386.649 107.611)">
<stop stop-color="#358076" offset="0.0679612"/>
<stop stop-color="#0a0f33" offset="0.519417"/>
<stop stop-color="#000000" offset="1"/>
</linearGradient>
<linearGradient y1="91.031" id="LinearGradient_23" x1="790.647" y2="158.299" x2="790.647" gradientUnits="userSpaceOnUse" gradientTransform="matrix(1.10571 0 0 1.01492 -386.649 107.611)">
<stop stop-color="#358076" offset="0.0679612"/>
<stop stop-color="#0a0f33" offset="0.519417"/>
<stop stop-color="#000000" offset="1"/>
</linearGradient>
<linearGradient y1="91.031" id="LinearGradient_24" x1="790.647" y2="158.299" x2="790.647" gradientUnits="userSpaceOnUse" gradientTransform="matrix(1.10571 0 0 1.01492 -386.649 107.611)">
<stop stop-color="#358076" offset="0.0679612"/>
<stop stop-color="#0a0f33" offset="0.519417"/>
<stop stop-color="#000000" offset="1"/>
</linearGradient>
<linearGradient y1="117.097" id="LinearGradient_25" x1="403.113" y2="113.601" x2="70.7279" gradientUnits="userSpaceOnUse" gradientTransform="matrix(1.31854e-08 -1.01492 1.10571 1.21028e-08 60.9457 440.455)">
<stop stop-color="#1fba99" offset="0.0825243"/>
<stop stop-color="#0a0f33" offset="0.466019"/>
<stop stop-color="#000000" offset="1"/>
</linearGradient>
</defs>
<g id="图层 2" vectornator:layerName="图层 2" opacity="0.276119">
<path vectornator:shadowColor="#0f2b3c" vectornator:shadowOpacity="0.333" vectornator:shadowRadius="0" d="M80.6592+268.272L711.506+268.272L711.506+323.887L80.6592+323.887L80.6592+268.272Z" vectornator:shadowOffset="6.26" fill="url(#LinearGradient)" opacity="1" vectornator:shadowAngle="1.06235"/>
<path stroke="#405a67" vectornator:shadowColor="#0f2b3c" vectornator:shadowOffset="6.9163" stroke-width="2.43" fill="none" stroke-linecap="butt" vectornator:shadowAngle="1.39917" stroke-linejoin="round" opacity="1" vectornator:shadowRadius="0" d="M607.683+207.178L380.95+232.668" vectornator:shadowOpacity="0.333"/>
<path stroke="#405a67" vectornator:shadowColor="#0f2b3c" vectornator:shadowOffset="6.9163" stroke-width="2.43" fill="none" stroke-linecap="round" vectornator:shadowAngle="1.39917" stroke-linejoin="round" opacity="1" vectornator:shadowRadius="0" d="M419.971+188.274L439.205+253.536" vectornator:shadowOpacity="0.333"/>
<path stroke="#405a67" vectornator:shadowColor="#0f2b3c" vectornator:shadowOffset="6.9163" stroke-width="2.43" fill="none" stroke-linecap="round" vectornator:shadowAngle="1.39917" stroke-linejoin="round" opacity="1" vectornator:shadowRadius="0" d="M239.895+182.141L439.205+253.536" vectornator:shadowOpacity="0.333"/>
<path stroke="#405a67" vectornator:shadowColor="#0f2b3c" vectornator:shadowOffset="6.9163" stroke-width="2.43" fill="none" stroke-linecap="round" vectornator:shadowAngle="1.39917" stroke-linejoin="round" opacity="1" vectornator:shadowRadius="0" d="M419.88+187.649L381.222+232.766" vectornator:shadowOpacity="0.333"/>
<path vectornator:shadowColor="#0f2b3c" vectornator:shadowOpacity="0.333" vectornator:shadowRadius="0" d="M635.784+255.099L298.706+329.114L296.692+326.101L633.769+252.087L635.784+255.099Z" vectornator:shadowOffset="6.9163" fill="url(#LinearGradient_2)" opacity="1" vectornator:shadowAngle="1.39917"/>
<path vectornator:shadowColor="#0f2b3c" vectornator:shadowOpacity="0.333" vectornator:shadowRadius="0" d="M541.211+300.709L355.771+125.727L357.622+123.426L543.063+298.408L541.211+300.709Z" vectornator:shadowOffset="6.9163" fill="url(#LinearGradient_3)" opacity="1" vectornator:shadowAngle="1.39917"/>
<path vectornator:shadowColor="#0f2b3c" vectornator:shadowOpacity="0.333" vectornator:shadowRadius="0" d="M233.581+228.734L514.764+165.412L515.878+167.768L234.695+231.091L233.581+228.734Z" vectornator:shadowOffset="6.9163" fill="url(#LinearGradient_4)" opacity="1" vectornator:shadowAngle="1.39917"/>
<path stroke="#405a67" vectornator:shadowColor="#0f2b3c" vectornator:shadowOffset="6.9163" stroke-width="2.43" fill="none" stroke-linecap="round" vectornator:shadowAngle="1.39917" stroke-linejoin="round" opacity="1" vectornator:shadowRadius="0" d="M607.683+207.178L477.96+289.754" vectornator:shadowOpacity="0.333"/>
<path stroke="#405a67" vectornator:shadowColor="#0f2b3c" vectornator:shadowOffset="6.9163" stroke-width="2.43" fill="none" stroke-linecap="round" vectornator:shadowAngle="1.39917" stroke-linejoin="round" opacity="1" vectornator:shadowRadius="0" d="M233.581+228.734L477.96+289.754" vectornator:shadowOpacity="0.333"/>
<path vectornator:shadowColor="#0f2b3c" vectornator:shadowOpacity="0.333" vectornator:shadowRadius="0" d="M429.588+231.632L167.133+342.986L165.904+340.089L428.359+228.734L429.588+231.632Z" vectornator:shadowOffset="6.9163" fill="url(#LinearGradient_5)" opacity="1" vectornator:shadowAngle="1.39917"/>
</g>
<g id="图层 1 copy" vectornator:layerName="图层 1 copy" opacity="0.228856">
<g opacity="1">
<path vectornator:shadowColor="#0f2b3c" vectornator:shadowOpacity="0.333" vectornator:shadowRadius="0" d="M262.856+246.724C262.856+242.118+263.712+238.305+265.424+235.284C267.136+232.264+269.704+229.988+273.127+228.457C276.551+226.927+280.536+226.161+285.081+226.161C291.899+226.161+297.086+227.8+300.642+231.078C304.199+234.356+305.977+239.165+305.977+245.504C305.977+249.162+305.46+252.331+304.427+255.013C303.394+257.695+302.007+259.856+300.266+261.495C298.524+263.134+296.695+264.373+294.776+265.213C291.5+266.622+287.811+267.326+283.708+267.326C277.038+267.326+271.895+265.586+268.28+262.104C264.664+258.623+262.856+253.496+262.856+246.724ZM275.12+244.773C275.12+251.979+276.271+257.113+278.573+260.174C280.108+262.206+282.292+263.222+285.125+263.222C287.545+263.222+289.464+262.45+290.88+260.906C292.769+258.847+293.714+254.864+293.714+248.959C293.714+244.814+293.337+241.258+292.585+238.291C291.832+235.325+290.725+233.259+289.264+232.094C287.803+230.929+286.04+230.347+283.974+230.347C282.203+230.347+280.654+230.774+279.325+231.627C277.997+232.48+276.964+233.916+276.226+235.935C275.489+237.953+275.12+240.899+275.12+244.773Z" vectornator:shadowOffset="4.93392" fill="url(#LinearGradient_6)" opacity="1" vectornator:shadowAngle="1.25265"/>
<path vectornator:shadowColor="#0f2b3c" vectornator:shadowOpacity="0.333" vectornator:shadowRadius="0" d="M327.227+266.229C327.109+265.877+326.843+264.861+326.43+263.181C326.194+262.26+325.825+260.973+325.323+259.321L321.605+247.211C320.04+242.145+319.037+238.921+318.594+237.54C317.532+234.316+316.779+232.419+316.336+231.851C316.159+231.607+315.879+231.431+315.495+231.322C314.875+231.106+313.341+230.97+310.891+230.916L310.891+227.706C314.61+227.787+318.594+227.828+322.844+227.828C327.212+227.828+331.403+227.787+335.417+227.706L335.417+230.916C332.259+230.916+330.37+231.078+329.751+231.404C329.367+231.593+329.175+231.918+329.175+232.379C329.175+232.894+329.323+233.679+329.618+234.736L334.975+253.225L342.678+237.702L345.334+232.419L347.99+226.69L352.506+226.69L365.035+253.225L369.418+241.278C370.067+239.409+370.716+237.309+371.366+234.98C371.661+233.788+371.808+233.002+371.808+232.623C371.808+231.972+371.58+231.559+371.122+231.383C370.665+231.207+368.827+231.051+365.61+230.916L365.61+227.706C368.768+227.787+371.705+227.828+374.42+227.828C377.077+227.828+380.205+227.787+383.806+227.706L383.806+230.916C381.71+231.024+380.589+231.092+380.441+231.119C380.028+231.227+379.652+231.41+379.312+231.668C378.973+231.925+378.7+232.23+378.493+232.582C378.287+232.934+377.549+234.682+376.28+237.824C375.778+239.043+374.907+241.292+373.668+244.57L371.321+250.99L370.613+252.819C370.259+253.767+369.314+256.409+367.78+260.743L366.009+266.229L358.793+266.229C355.989+260.052+354.365+256.49+353.923+255.542L346.795+240.628C344.227+245.504+342.324+249.209+341.084+251.742C339.844+254.275+338.752+256.558+337.808+258.589L334.443+266.229L327.227+266.229Z" vectornator:shadowOffset="4.93392" fill="url(#LinearGradient_7)" opacity="1" vectornator:shadowAngle="1.25265"/>
<path vectornator:shadowColor="#0f2b3c" vectornator:shadowOpacity="0.333" vectornator:shadowRadius="0" d="M426.085+259.646L424.137+263.628C421.717+264.983+419.223+265.985+416.655+266.635C414.737+267.096+412.553+267.326+410.103+267.326C407.181+267.326+404.606+267.015+402.378+266.392C400.15+265.768+398.246+264.915+396.667+263.831C395.088+262.748+393.701+261.42+392.505+259.849C391.31+258.278+390.447+256.463+389.915+254.404C389.384+252.345+389.119+250.096+389.119+247.658C389.119+244.109+389.635+240.94+390.668+238.149C391.376+236.199+392.203+234.79+393.147+233.923C393.738+233.381+395.272+232.365+397.751+230.875C400.231+229.385+402.031+228.41+403.153+227.949C405.219+227.11+407.654+226.69+410.457+226.69C414.412+226.69+417.659+227.448+420.197+228.965C422.735+230.482+424.528+232.419+425.576+234.776C426.624+237.133+427.148+239.991+427.148+243.351C427.148+244.109+427.118+244.841+427.059+245.545C426.321+245.762+425.2+246.006+423.695+246.277C421.688+246.629+420.33+246.818+419.622+246.845C417.408+247.008+414.486+247.103+410.856+247.13C407.226+247.157+405.219+247.184+404.835+247.211C404.451+247.238+404.023+247.252+403.551+247.252L400.629+247.252C400.865+251.532+402.311+254.912+404.968+257.391C407.624+259.869+410.9+261.109+414.796+261.109C416.478+261.109+418.028+260.939+419.444+260.601C420.861+260.262+422.721+259.565+425.023+258.508L426.085+259.646ZM415.549+242.822C415.667+238.515+415.032+235.494+413.645+233.76C412.228+232.054+410.398+231.2+408.155+231.2C405.853+231.2+403.949+232.094+402.444+233.882C400.91+235.697+400.201+238.678+400.319+242.822C402.061+243.066+404.968+243.188+409.041+243.188C411.638+243.188+413.807+243.066+415.549+242.822Z" vectornator:shadowOffset="4.93392" fill="url(#LinearGradient_8)" opacity="1" vectornator:shadowAngle="1.25265"/>
<path vectornator:shadowColor="#0f2b3c" vectornator:shadowOpacity="0.333" vectornator:shadowRadius="0" d="M458.492+262.775L458.492+265.904C455.157+265.768+451.438+265.701+447.335+265.701C442.761+265.701+438.009+265.768+433.08+265.904L433.08+262.775C435.382+262.775+436.976+262.626+437.861+262.328C438.275+262.192+438.584+261.962+438.791+261.637C439.086+261.122+439.249+260.147+439.278+258.711L439.455+255.095C439.485+254.336+439.499+253.103+439.499+251.397L439.499+246.073C439.499+243.662+439.411+240.736+439.234+237.296C439.145+235.562+439.02+234.58+438.857+234.35C438.695+234.119+438.437+233.95+438.083+233.842C437.522+233.652+435.854+233.517+433.08+233.435L433.08+230.306C438.452+229.467+441.979+228.843+443.661+228.437C445.343+228.031+447.247+227.381+449.372+226.487L450.567+226.974L450.479+235.183C452.397+233.368+453.873+231.864+454.906+230.672C456.441+228.992+457.592+227.922+458.359+227.462C459.422+226.812+460.823+226.487+462.565+226.487C463.657+226.487+464.646+226.649+465.531+226.974L465.265+232.745C465.177+235.887+465.103+237.689+465.044+238.149L463.185+238.678C462.447+237.784+461.738+237.16+461.06+236.808C459.968+236.239+458.772+235.955+457.474+235.955C455.732+235.955+454.234+236.449+452.98+237.438C451.726+238.427+450.98+239.436+450.744+240.466C450.626+241.062+450.567+243.351+450.567+247.333L450.567+251.397L450.656+256.923C450.685+259.009+450.767+260.289+450.899+260.763C451.032+261.237+451.335+261.61+451.807+261.881C452.279+262.152+453.297+262.341+454.862+262.45L458.492+262.775Z" vectornator:shadowOffset="4.93392" fill="url(#LinearGradient_9)" opacity="1" vectornator:shadowAngle="1.25265"/>
<path vectornator:shadowColor="#0f2b3c" vectornator:shadowOpacity="0.333" vectornator:shadowRadius="0" d="M474.385+256.436L480.539+252.331C478.355+251.6+476.606+250.753+475.293+249.792C473.979+248.83+472.932+247.563+472.15+245.992C471.367+244.421+470.976+242.687+470.976+240.791C470.976+238.217+471.7+235.813+473.146+233.578C474.592+231.343+476.857+229.561+479.941+228.234C483.026+226.906+486.634+226.243+490.766+226.243C493.54+226.243+496.1+226.534+498.447+227.116C500.793+227.699+502.763+228.559+504.357+229.697C506.069+229.778+507.249+229.819+507.899+229.819C508.784+229.819+511.19+229.737+515.115+229.575L514.495+234.573L507.5+234.573C507.884+235.928+508.076+237.242+508.076+238.515C508.076+241.414+507.235+243.974+505.552+246.195C503.87+248.417+501.502+250.123+498.447+251.315C495.392+252.507+492.153+253.103+488.729+253.103C487.814+253.103+486.53+253.036+484.878+252.9C483.963+253.388+483.269+253.964+482.797+254.627C482.325+255.291+482.089+255.907+482.089+256.476C482.089+256.964+482.288+257.424+482.686+257.858C483.085+258.291+483.638+258.576+484.346+258.711C485.32+258.901+487.755+258.996+491.651+258.996L502.542+258.752C505.729+258.752+508.194+259.091+509.935+259.768C511.677+260.445+512.975+261.475+513.831+262.856C514.687+264.238+515.115+266.066+515.115+268.342C515.115+271.728+514.244+274.79+512.503+277.526C510.762+280.262+508.15+282.511+504.667+284.272C500.269+286.466+495.031+287.563+488.951+287.563C484.169+287.563+480.273+286.954+477.263+285.734C474.252+284.515+472.142+283.066+470.932+281.386C469.722+279.707+469.117+277.878+469.117+275.9C469.117+274.763+469.309+273.733+469.693+272.812C470.076+271.891+470.519+271.2+471.021+270.74C471.522+270.279+472.511+269.656+473.987+268.87C476.82+267.407+478.399+266.608+478.724+266.473C477.13+266.31+475.699+265.782+474.43+264.888C473.279+263.913+472.703+262.802+472.703+261.556C472.703+260.879+472.851+260.12+473.146+259.28C473.559+258.088+473.972+257.14+474.385+256.436ZM482.089+238.921C482.089+242.66+482.797+245.328+484.214+246.927C485.63+248.525+487.475+249.324+489.747+249.324C492.256+249.324+494.175+248.39+495.503+246.52C496.447+245.166+496.919+243.134+496.919+240.425C496.919+236.632+496.255+233.977+494.927+232.46C493.599+230.943+491.754+230.184+489.393+230.184C487.15+230.184+485.372+230.875+484.059+232.257C482.745+233.639+482.089+235.86+482.089+238.921ZM483.638+266.879C481.218+268.288+479.602+269.581+478.79+270.76C477.979+271.938+477.573+273.259+477.573+274.722C477.573+277.187+478.672+279.246+480.871+280.899C483.07+282.551+486.368+283.378+490.766+283.378C495.37+283.378+498.89+282.389+501.324+280.411C503.759+278.433+504.977+275.928+504.977+272.893C504.977+271.43+504.733+270.313+504.246+269.541C503.759+268.769+503.073+268.159+502.188+267.712C501.302+267.265+500.077+267.008+498.513+266.94C496.949+266.872+493.333+266.839+487.667+266.839C486.634+266.839+485.291+266.852+483.638+266.879Z" vectornator:shadowOffset="4.93392" fill="url(#LinearGradient_10)" opacity="1" vectornator:shadowAngle="1.25265"/>
<path vectornator:shadowColor="#0f2b3c" vectornator:shadowOpacity="0.333" vectornator:shadowRadius="0" d="M557.129+259.646L555.181+263.628C552.76+264.983+550.267+265.985+547.699+266.635C545.78+267.096+543.596+267.326+541.147+267.326C538.225+267.326+535.65+267.015+533.421+266.392C531.193+265.768+529.289+264.915+527.71+263.831C526.131+262.748+524.744+261.42+523.549+259.849C522.353+258.278+521.49+256.463+520.959+254.404C520.428+252.345+520.162+250.096+520.162+247.658C520.162+244.109+520.678+240.94+521.711+238.149C522.42+236.199+523.246+234.79+524.191+233.923C524.781+233.381+526.316+232.365+528.795+230.875C531.274+229.385+533.074+228.41+534.196+227.949C536.262+227.11+538.697+226.69+541.501+226.69C545.456+226.69+548.702+227.448+551.24+228.965C553.779+230.482+555.572+232.419+556.619+234.776C557.667+237.133+558.191+239.991+558.191+243.351C558.191+244.109+558.162+244.841+558.103+245.545C557.365+245.762+556.243+246.006+554.738+246.277C552.731+246.629+551.373+246.818+550.665+246.845C548.451+247.008+545.529+247.103+541.899+247.13C538.269+247.157+536.262+247.184+535.878+247.211C535.495+247.238+535.067+247.252+534.594+247.252L531.673+247.252C531.909+251.532+533.355+254.912+536.011+257.391C538.667+259.869+541.943+261.109+545.839+261.109C547.522+261.109+549.071+260.939+550.488+260.601C551.905+260.262+553.764+259.565+556.066+258.508L557.129+259.646ZM546.592+242.822C546.71+238.515+546.075+235.494+544.688+233.76C543.272+232.054+541.442+231.2+539.199+231.2C536.897+231.2+534.993+232.094+533.488+233.882C531.953+235.697+531.245+238.678+531.363+242.822C533.104+243.066+536.011+243.188+540.084+243.188C542.681+243.188+544.851+243.066+546.592+242.822Z" vectornator:shadowOffset="4.93392" fill="url(#LinearGradient_11)" opacity="1" vectornator:shadowAngle="1.25265"/>
<path vectornator:shadowColor="#0f2b3c" vectornator:shadowOpacity="0.333" vectornator:shadowRadius="0" d="M563.415+234.98L563.415+233.151L567.4+230.835C568.049+230.455+568.669+230.049+569.259+229.616L569.259+224.17C569.259+222.22+569.141+219.809+568.905+216.937C571.768+216.07+573.627+215.488+574.483+215.19C574.631+215.135+576.505+214.336+580.105+212.792L581.257+213.605L580.814+217.831L580.504+222.504L580.105+229.616L581.566+229.616C585.492+229.616+588.458+229.48+590.465+229.209L589.712+234.695C589.358+234.749+589.034+234.776+588.738+234.776L584.4+234.695L580.105+234.695L580.105+248.268C580.105+252.44+580.15+254.905+580.238+255.664C580.356+256.937+580.851+257.932+581.721+258.65C582.592+259.368+583.854+259.727+585.507+259.727C586.51+259.754+587.314+259.734+587.919+259.666C588.524+259.598+589.299+259.47+590.244+259.28L590.952+260.946L589.358+262.409C588.06+263.628+586.923+264.698+585.949+265.619C584.798+266.08+583.773+266.385+582.872+266.534C581.972+266.683+581.05+266.757+580.105+266.757C576.682+266.757+573.989+265.951+572.026+264.339C570.063+262.727+569.082+260.716+569.082+258.305L569.259+244.895L569.259+234.858L568.064+234.858C566.44+234.858+564.891+234.898+563.415+234.98Z" vectornator:shadowOffset="4.93392" fill="url(#LinearGradient_12)" opacity="1" vectornator:shadowAngle="1.25265"/>
<path vectornator:shadowColor="#0f2b3c" vectornator:shadowOpacity="0.333" vectornator:shadowRadius="0" d="M606.757+207.062C608.646+207.062+610.247+207.672+611.56+208.891C612.874+210.11+613.53+211.573+613.53+213.28C613.53+215.014+612.874+216.49+611.56+217.709C610.247+218.928+608.646+219.538+606.757+219.538C604.897+219.538+603.304+218.928+601.976+217.709C600.647+216.49+599.983+215.014+599.983+213.28C599.983+211.573+600.64+210.11+601.953+208.891C603.267+207.672+604.868+207.062+606.757+207.062ZM594.626+265.904L594.626+262.897C597.932+262.68+599.821+262.443+600.293+262.186C600.765+261.928+601.061+261.447+601.179+260.743C601.474+259.253+601.621+255.42+601.621+249.243C601.621+240.764+601.489+235.941+601.223+234.776C601.105+234.235+600.913+233.882+600.647+233.72C600.057+233.368+598.05+233.178+594.626+233.151L594.626+230.063C599.083+229.629+602.448+229.169+604.72+228.681C606.993+228.193+609.472+227.448+612.158+226.446L613.22+226.974C612.866+231.2+612.689+235.169+612.689+238.881L612.689+252.697C612.689+257.411+612.807+260.201+613.043+261.068C613.161+261.556+613.398+261.881+613.752+262.043C614.549+262.396+616.482+262.626+619.551+262.734L619.551+265.904C615.36+265.796+610.8+265.741+605.871+265.741C601.621+265.741+597.873+265.796+594.626+265.904Z" vectornator:shadowOffset="4.93392" fill="url(#LinearGradient_13)" opacity="1" vectornator:shadowAngle="1.25265"/>
<path vectornator:shadowColor="#0f2b3c" vectornator:shadowOpacity="0.333" vectornator:shadowRadius="0" d="M659.883+260.54L657.935+264.482C655.396+265.647+653.338+266.412+651.759+266.778C650.18+267.143+648.283+267.326+646.07+267.326C641.23+267.326+637.304+266.459+634.294+264.725C631.283+262.992+628.996+260.513+627.432+257.289C626.31+255.013+625.749+251.979+625.749+248.186C625.749+245.342+626.044+243.012+626.635+241.197C627.225+239.382+628.066+237.784+629.158+236.402C629.896+235.481+630.885+234.614+632.124+233.801L638.942+229.859C641.244+228.505+642.823+227.692+643.679+227.421C645.096+226.934+646.941+226.69+649.213+226.69C651.102+226.69+652.866+226.832+654.504+227.116C656.142+227.401+657.654+227.828+659.041+228.396L659.484+229.087L658.377+235.711C658.289+236.307+658.141+238.176+657.935+241.319L654.481+241.319C654.304+238.908+654.083+237.12+653.817+235.955C653.198+235.034+652.238+234.282+650.94+233.7C649.641+233.117+648.047+232.826+646.158+232.826C643.915+232.826+642.13+233.205+640.802+233.964C639.473+234.722+638.499+235.995+637.88+237.784C637.26+239.572+636.95+241.739+636.95+244.285C636.95+247.699+637.585+250.753+638.854+253.449C640.123+256.144+641.798+258.122+643.878+259.382C645.959+260.641+648.52+261.271+651.56+261.271C652.947+261.271+654.26+261.129+655.5+260.845C656.739+260.56+657.92+260.147+659.041+259.605L659.883+260.54Z" vectornator:shadowOffset="4.93392" fill="url(#LinearGradient_14)" opacity="1" vectornator:shadowAngle="1.25265"/>
</g>
<path vectornator:shadowColor="#0f2b3c" vectornator:shadowOpacity="0.333" vectornator:shadowRadius="0" d="M189.679+388.595C201.79+388.595+146.673+379.754+168.614+334.976C170.969+330.17+266.602+290.671+258.769+278.828C238.978+248.905+256.26+228.245+256.155+225.057C256.766+227.674+275.947+188.22+266.051+206.638C256.155+225.057+247.266+219.923+243.019+202.064C241.398+195.248+240.959+189.671+247.839+179.886C256.859+167.056+249.281+157.918+247.556+150.947C247.556+150.947+252.151+168.374+228.817+183.445C198.649+202.93+210.287+168.338+203.416+183.445C193.481+205.289+169.532+188.469+161.837+174.025C155.783+170.525+159.671+170.165+153.09+158.934C145.98+146.802+170.358+108.036+178.028+125.227C180.204+130.103+173.736+144.682+175.874+144.973C179.293+145.438+191.107+128.279+192.876+118.987C194.332+111.34+198.874+89.7505+203.964+78.3596C212.353+59.586+222.229+51.2511+222.229+51.2511C222.229+51.2511+200.087+63.8373+192.513+84.6306C184.591+106.38+164.526+115.276+159.557+119.395C149.703+127.563+167.984+87.3651+168.968+85.6012C178.262+68.9389+134.614+136.68+136.373+146.361C134.223+150.689+131.345+146.228+128.252+144.796C119.533+165.386+118.44+192.884+118.44+192.884C117.894+206.037+118.066+226.626+121.676+224.52C122.664+223.944+123.91+215.045+125.47+211.814C124.736+203.294+134.685+198.53+137.984+211.208C140.969+222.676+178.064+239.032+178.064+239.032C178.064+239.032+168.1+231.041+166.227+222.7C163.557+210.812+169.935+198.214+181.821+207.02C191.237+213.997+198.993+217.26+205.614+238.031C216.002+270.624+184.216+287.432+188.326+271.295C190.607+262.338+184.957+290.671+156.651+288.074C144.135+286.926+155.891+254.557+155.891+254.557C151.44+263.683+134.857+281.781+137.428+303.196C141.438+336.594+145.46+372.574+145.46+372.574" vectornator:shadowOffset="15.1762" fill="url(#LinearGradient_15)" opacity="1" vectornator:shadowAngle="1.39917"/>
</g>
<g id="图层 1" vectornator:layerName="图层 1">
<g opacity="1">
<path vectornator:shadowColor="#0f2b3c" vectornator:shadowOpacity="0.333" vectornator:shadowRadius="0" d="M261.272+243.202C261.272+238.597+262.128+234.784+263.84+231.763C265.552+228.743+268.119+226.467+271.543+224.936C274.967+223.406+278.951+222.64+283.496+222.64C290.314+222.64+295.501+224.279+299.058+227.557C302.614+230.835+304.392+235.644+304.392+241.983C304.392+245.641+303.876+248.81+302.843+251.492C301.81+254.174+300.423+256.335+298.681+257.974C296.94+259.613+295.11+260.852+293.192+261.692C289.916+263.101+286.226+263.805+282.124+263.805C275.454+263.805+270.311+262.065+266.695+258.583C263.08+255.102+261.272+249.975+261.272+243.202ZM273.535+241.252C273.535+248.458+274.686+253.592+276.988+256.653C278.523+258.685+280.707+259.701+283.541+259.701C285.961+259.701+287.879+258.929+289.296+257.385C291.185+255.326+292.129+251.343+292.129+245.437C292.129+241.293+291.753+237.737+291+234.77C290.248+231.804+289.141+229.738+287.68+228.573C286.219+227.408+284.456+226.826+282.39+226.826C280.619+226.826+279.069+227.253+277.741+228.106C276.413+228.959+275.38+230.395+274.642+232.413C273.904+234.432+273.535+237.378+273.535+241.252Z" vectornator:shadowOffset="4.93392" fill="url(#LinearGradient_16)" opacity="1" vectornator:shadowAngle="1.25265"/>
<path vectornator:shadowColor="#0f2b3c" vectornator:shadowOpacity="0.333" vectornator:shadowRadius="0" d="M325.643+262.708C325.525+262.356+325.259+261.34+324.846+259.66C324.61+258.739+324.241+257.452+323.739+255.8L320.02+243.69C318.456+238.624+317.453+235.4+317.01+234.019C315.947+230.795+315.195+228.898+314.752+228.33C314.575+228.086+314.294+227.91+313.911+227.801C313.291+227.585+311.756+227.449+309.307+227.395L309.307+224.185C313.025+224.266+317.01+224.307+321.26+224.307C325.628+224.307+329.819+224.266+333.833+224.185L333.833+227.395C330.675+227.395+328.786+227.557+328.166+227.883C327.783+228.072+327.591+228.397+327.591+228.858C327.591+229.373+327.738+230.158+328.033+231.215L333.39+249.704L341.093+234.181L343.75+228.898L346.406+223.169L350.922+223.169L363.451+249.704L367.833+237.757C368.483+235.888+369.132+233.788+369.781+231.459C370.076+230.267+370.224+229.481+370.224+229.102C370.224+228.451+369.995+228.038+369.538+227.862C369.08+227.686+367.243+227.53+364.026+227.395L364.026+224.185C367.184+224.266+370.121+224.307+372.836+224.307C375.492+224.307+378.621+224.266+382.222+224.185L382.222+227.395C380.126+227.503+379.005+227.571+378.857+227.598C378.444+227.706+378.067+227.889+377.728+228.147C377.389+228.404+377.116+228.709+376.909+229.061C376.702+229.413+375.965+231.161+374.695+234.303C374.194+235.522+373.323+237.771+372.083+241.049L369.737+247.469L369.029+249.298C368.675+250.246+367.73+252.887+366.195+257.222L364.424+262.708L357.208+262.708C354.404+256.531+352.781+252.969+352.338+252.021L345.211+237.107C342.643+241.983+340.739+245.688+339.5+248.221C338.26+250.754+337.168+253.036+336.224+255.068L332.859+262.708L325.643+262.708Z" vectornator:shadowOffset="4.93392" fill="url(#LinearGradient_17)" opacity="1" vectornator:shadowAngle="1.25265"/>
<path vectornator:shadowColor="#0f2b3c" vectornator:shadowOpacity="0.333" vectornator:shadowRadius="0" d="M424.501+256.125L422.553+260.107C420.133+261.462+417.639+262.464+415.071+263.114C413.153+263.575+410.969+263.805+408.519+263.805C405.597+263.805+403.022+263.494+400.793+262.87C398.565+262.247+396.661+261.394+395.082+260.31C393.503+259.227+392.116+257.899+390.921+256.328C389.726+254.757+388.862+252.942+388.331+250.883C387.8+248.824+387.534+246.575+387.534+244.137C387.534+240.588+388.051+237.419+389.084+234.628C389.792+232.678+390.618+231.269+391.563+230.402C392.153+229.86+393.688+228.844+396.167+227.354C398.646+225.864+400.447+224.889+401.568+224.428C403.634+223.589+406.069+223.169+408.873+223.169C412.828+223.169+416.074+223.927+418.613+225.444C421.151+226.961+422.944+228.898+423.992+231.255C425.039+233.612+425.563+236.47+425.563+239.83C425.563+240.588+425.534+241.32+425.475+242.024C424.737+242.241+423.615+242.485+422.11+242.755C420.103+243.108+418.746+243.297+418.037+243.324C415.824+243.487+412.902+243.582+409.271+243.609C405.641+243.636+403.634+243.663+403.251+243.69C402.867+243.717+402.439+243.731+401.967+243.731L399.045+243.731C399.281+248.011+400.727+251.391+403.383+253.87C406.04+256.348+409.316+257.588+413.212+257.588C414.894+257.588+416.443+257.418+417.86+257.08C419.277+256.741+421.136+256.044+423.438+254.987L424.501+256.125ZM413.964+239.301C414.082+234.994+413.448+231.973+412.061+230.239C410.644+228.533+408.814+227.679+406.571+227.679C404.269+227.679+402.365+228.573+400.86+230.361C399.325+232.176+398.617+235.156+398.735+239.301C400.476+239.545+403.383+239.667+407.456+239.667C410.054+239.667+412.223+239.545+413.964+239.301Z" vectornator:shadowOffset="4.93392" fill="url(#LinearGradient_18)" opacity="1" vectornator:shadowAngle="1.25265"/>
<path vectornator:shadowColor="#0f2b3c" vectornator:shadowOpacity="0.333" vectornator:shadowRadius="0" d="M456.907+259.254L456.907+262.383C453.572+262.247+449.854+262.18+445.751+262.18C441.176+262.18+436.425+262.247+431.496+262.383L431.496+259.254C433.798+259.254+435.392+259.105+436.277+258.807C436.69+258.671+437+258.441+437.207+258.116C437.502+257.601+437.664+256.626+437.694+255.19L437.871+251.574C437.9+250.815+437.915+249.582+437.915+247.876L437.915+242.552C437.915+240.141+437.827+237.215+437.649+233.775C437.561+232.041+437.435+231.059+437.273+230.829C437.111+230.598+436.853+230.429+436.498+230.321C435.938+230.131+434.27+229.996+431.496+229.914L431.496+226.785C436.867+225.946+440.394+225.322+442.077+224.916C443.759+224.51+445.663+223.86+447.788+222.966L448.983+223.453L448.894+231.662C450.813+229.847+452.289+228.343+453.322+227.151C454.856+225.471+456.007+224.401+456.775+223.941C457.837+223.291+459.239+222.966+460.98+222.966C462.072+222.966+463.061+223.128+463.947+223.453L463.681+229.224C463.592+232.366+463.519+234.168+463.46+234.628L461.6+235.156C460.862+234.262+460.154+233.639+459.475+233.287C458.383+232.718+457.188+232.434+455.889+232.434C454.148+232.434+452.65+232.928+451.396+233.917C450.141+234.906+449.396+235.915+449.16+236.944C449.042+237.54+448.983+239.83+448.983+243.812L448.983+247.876L449.071+253.402C449.101+255.488+449.182+256.768+449.315+257.242C449.448+257.716+449.75+258.089+450.223+258.36C450.695+258.631+451.713+258.82+453.277+258.929L456.907+259.254Z" vectornator:shadowOffset="4.93392" fill="url(#LinearGradient_19)" opacity="1" vectornator:shadowAngle="1.25265"/>
<path vectornator:shadowColor="#0f2b3c" vectornator:shadowOpacity="0.333" vectornator:shadowRadius="0" d="M472.801+252.915L478.955+248.81C476.771+248.079+475.022+247.232+473.708+246.271C472.395+245.309+471.347+244.042+470.565+242.471C469.783+240.9+469.392+239.166+469.392+237.27C469.392+234.696+470.115+232.292+471.561+230.057C473.008+227.822+475.273+226.04+478.357+224.713C481.441+223.385+485.049+222.722+489.181+222.722C491.956+222.722+494.516+223.013+496.862+223.595C499.209+224.178+501.179+225.038+502.773+226.176C504.485+226.257+505.665+226.298+506.314+226.298C507.2+226.298+509.605+226.216+513.531+226.054L512.911+231.052L505.916+231.052C506.3+232.407+506.491+233.721+506.491+234.994C506.491+237.893+505.65+240.453+503.968+242.674C502.286+244.896+499.917+246.602+496.862+247.794C493.808+248.986+490.569+249.582+487.145+249.582C486.23+249.582+484.946+249.515+483.293+249.379C482.378+249.867+481.685+250.443+481.213+251.106C480.74+251.77+480.504+252.386+480.504+252.955C480.504+253.443+480.703+253.903+481.102+254.337C481.5+254.77+482.054+255.055+482.762+255.19C483.736+255.38+486.171+255.475+490.067+255.475L500.958+255.231C504.145+255.231+506.61+255.569+508.351+256.247C510.092+256.924+511.391+257.953+512.247+259.335C513.103+260.717+513.531+262.545+513.531+264.821C513.531+268.207+512.66+271.269+510.919+274.005C509.177+276.741+506.565+278.99+503.083+280.751C498.685+282.945+493.446+284.042+487.366+284.042C482.585+284.042+478.689+283.433+475.679+282.213C472.668+280.994+470.558+279.545+469.348+277.865C468.138+276.186+467.533+274.357+467.533+272.379C467.533+271.242+467.724+270.212+468.108+269.291C468.492+268.37+468.935+267.679+469.436+267.219C469.938+266.758+470.927+266.135+472.402+265.349C475.236+263.886+476.815+263.087+477.14+262.952C475.546+262.789+474.114+262.261+472.845+261.367C471.694+260.392+471.119+259.281+471.119+258.035C471.119+257.357+471.266+256.599+471.561+255.759C471.975+254.567+472.388+253.619+472.801+252.915ZM480.504+235.4C480.504+239.139+481.213+241.807+482.629+243.406C484.046+245.004+485.891+245.803+488.163+245.803C490.672+245.803+492.59+244.869+493.918+242.999C494.863+241.645+495.335+239.613+495.335+236.904C495.335+233.111+494.671+230.456+493.343+228.939C492.015+227.422+490.17+226.663+487.809+226.663C485.566+226.663+483.788+227.354+482.474+228.736C481.161+230.118+480.504+232.339+480.504+235.4ZM482.054+263.358C479.633+264.767+478.018+266.06+477.206+267.239C476.394+268.417+475.988+269.738+475.988+271.201C475.988+273.666+477.088+275.725+479.287+277.378C481.486+279.03+484.784+279.857+489.181+279.857C493.786+279.857+497.305+278.868+499.74+276.89C502.175+274.912+503.392+272.406+503.392+269.372C503.392+267.909+503.149+266.792+502.662+266.02C502.175+265.248+501.489+264.638+500.603+264.191C499.718+263.744+498.493+263.487+496.929+263.419C495.365+263.351+491.749+263.317+486.082+263.317C485.049+263.317+483.706+263.331+482.054+263.358Z" vectornator:shadowOffset="4.93392" fill="url(#LinearGradient_20)" opacity="1" vectornator:shadowAngle="1.25265"/>
<path vectornator:shadowColor="#0f2b3c" vectornator:shadowOpacity="0.333" vectornator:shadowRadius="0" d="M555.544+256.125L553.596+260.107C551.176+261.462+548.682+262.464+546.114+263.114C544.196+263.575+542.012+263.805+539.562+263.805C536.64+263.805+534.065+263.494+531.837+262.87C529.609+262.247+527.705+261.394+526.126+260.31C524.547+259.227+523.16+257.899+521.964+256.328C520.769+254.757+519.906+252.942+519.374+250.883C518.843+248.824+518.578+246.575+518.578+244.137C518.578+240.588+519.094+237.419+520.127+234.628C520.835+232.678+521.662+231.269+522.606+230.402C523.197+229.86+524.731+228.844+527.211+227.354C529.69+225.864+531.49+224.889+532.612+224.428C534.678+223.589+537.113+223.169+539.916+223.169C543.871+223.169+547.118+223.927+549.656+225.444C552.194+226.961+553.987+228.898+555.035+231.255C556.083+233.612+556.607+236.47+556.607+239.83C556.607+240.588+556.577+241.32+556.518+242.024C555.78+242.241+554.659+242.485+553.154+242.755C551.147+243.108+549.789+243.297+549.081+243.324C546.867+243.487+543.945+243.582+540.315+243.609C536.685+243.636+534.678+243.663+534.294+243.69C533.91+243.717+533.482+243.731+533.01+243.731L530.088+243.731C530.324+248.011+531.77+251.391+534.427+253.87C537.083+256.348+540.359+257.588+544.255+257.588C545.937+257.588+547.487+257.418+548.904+257.08C550.32+256.741+552.18+256.044+554.482+254.987L555.544+256.125ZM545.008+239.301C545.126+234.994+544.491+231.973+543.104+230.239C541.687+228.533+539.857+227.679+537.614+227.679C535.312+227.679+533.409+228.573+531.903+230.361C530.369+232.176+529.66+235.156+529.778+239.301C531.52+239.545+534.427+239.667+538.5+239.667C541.097+239.667+543.266+239.545+545.008+239.301Z" vectornator:shadowOffset="4.93392" fill="url(#LinearGradient_21)" opacity="1" vectornator:shadowAngle="1.25265"/>
<path vectornator:shadowColor="#0f2b3c" vectornator:shadowOpacity="0.333" vectornator:shadowRadius="0" d="M561.831+231.459L561.831+229.63L565.815+227.314C566.465+226.934+567.084+226.528+567.675+226.095L567.675+220.649C567.675+218.699+567.557+216.288+567.32+213.416C570.183+212.549+572.043+211.967+572.899+211.669C573.046+211.614+574.92+210.815+578.521+209.271L579.672+210.084L579.229+214.31L578.92+218.983L578.521+226.095L579.982+226.095C583.907+226.095+586.874+225.959+588.881+225.688L588.128+231.174C587.774+231.228+587.449+231.255+587.154+231.255L582.815+231.174L578.521+231.174L578.521+244.747C578.521+248.919+578.565+251.384+578.654+252.142C578.772+253.416+579.266+254.411+580.137+255.129C581.008+255.847+582.269+256.206+583.922+256.206C584.926+256.233+585.73+256.213+586.335+256.145C586.94+256.077+587.715+255.949+588.659+255.759L589.368+257.425L587.774+258.888C586.475+260.107+585.339+261.177+584.365+262.098C583.214+262.559+582.188+262.864+581.288+263.013C580.388+263.162+579.466+263.236+578.521+263.236C575.097+263.236+572.404+262.43+570.442+260.818C568.479+259.206+567.498+257.195+567.498+254.784L567.675+241.374L567.675+231.337L566.479+231.337C564.856+231.337+563.306+231.377+561.831+231.459Z" vectornator:shadowOffset="4.93392" fill="url(#LinearGradient_22)" opacity="1" vectornator:shadowAngle="1.25265"/>
<path vectornator:shadowColor="#0f2b3c" vectornator:shadowOpacity="0.333" vectornator:shadowRadius="0" d="M605.172+203.541C607.061+203.541+608.663+204.151+609.976+205.37C611.289+206.589+611.946+208.052+611.946+209.759C611.946+211.493+611.289+212.969+609.976+214.188C608.663+215.407+607.061+216.017+605.172+216.017C603.313+216.017+601.719+215.407+600.391+214.188C599.063+212.969+598.399+211.493+598.399+209.759C598.399+208.052+599.056+206.589+600.369+205.37C601.682+204.151+603.284+203.541+605.172+203.541ZM593.042+262.383L593.042+259.376C596.348+259.159+598.237+258.922+598.709+258.665C599.181+258.407+599.476+257.926+599.594+257.222C599.889+255.732+600.037+251.899+600.037+245.722C600.037+237.242+599.904+232.42+599.639+231.255C599.52+230.714+599.329+230.361+599.063+230.199C598.473+229.847+596.466+229.657+593.042+229.63L593.042+226.542C597.499+226.108+600.863+225.648+603.136+225.16C605.409+224.672+607.888+223.927+610.574+222.925L611.636+223.453C611.282+227.679+611.105+231.648+611.105+235.36L611.105+249.176C611.105+253.89+611.223+256.68+611.459+257.547C611.577+258.035+611.813+258.36+612.167+258.522C612.964+258.875+614.897+259.105+617.967+259.213L617.967+262.383C613.776+262.274+609.216+262.22+604.287+262.22C600.037+262.22+596.289+262.274+593.042+262.383Z" vectornator:shadowOffset="4.93392" fill="url(#LinearGradient_23)" opacity="1" vectornator:shadowAngle="1.25265"/>
<path vectornator:shadowColor="#0f2b3c" vectornator:shadowOpacity="0.333" vectornator:shadowRadius="0" d="M658.298+257.019L656.35+260.961C653.812+262.125+651.753+262.891+650.174+263.257C648.595+263.622+646.699+263.805+644.486+263.805C639.645+263.805+635.72+262.938+632.709+261.204C629.699+259.471+627.411+256.992+625.847+253.768C624.726+251.492+624.165+248.458+624.165+244.665C624.165+241.821+624.46+239.491+625.05+237.676C625.641+235.861+626.482+234.262+627.574+232.881C628.312+231.96+629.3+231.093+630.54+230.28L637.358+226.338C639.66+224.984+641.239+224.171+642.095+223.9C643.512+223.413+645.356+223.169+647.629+223.169C649.518+223.169+651.281+223.311+652.919+223.595C654.557+223.88+656.07+224.307+657.457+224.875L657.9+225.566L656.793+232.19C656.704+232.786+656.557+234.655+656.35+237.798L652.897+237.798C652.72+235.387+652.499+233.599+652.233+232.434C651.613+231.513+650.654+230.761+649.355+230.178C648.057+229.596+646.463+229.305+644.574+229.305C642.331+229.305+640.545+229.684+639.217+230.443C637.889+231.201+636.915+232.474+636.295+234.262C635.675+236.05+635.366+238.218+635.366+240.764C635.366+244.178+636+247.232+637.269+249.928C638.538+252.623+640.213+254.601+642.294+255.861C644.375+257.12+646.935+257.75+649.975+257.75C651.362+257.75+652.676+257.608+653.915+257.324C655.155+257.039+656.335+256.626+657.457+256.084L658.298+257.019Z" vectornator:shadowOffset="4.93392" fill="url(#LinearGradient_24)" opacity="1" vectornator:shadowAngle="1.25265"/>
</g>
<path vectornator:shadowColor="#0f2b3c" vectornator:shadowOpacity="0.333" vectornator:shadowRadius="0" d="M186.555+368.672C198.666+368.672+143.549+359.83+165.49+315.053C167.845+310.247+263.478+270.748+255.645+258.905C235.854+228.982+253.136+208.322+253.031+205.134C253.642+207.751+272.823+168.297+262.927+186.715C253.031+205.134+244.142+200+239.895+182.141C238.274+175.325+237.836+169.748+244.715+159.963C253.735+147.133+246.157+137.995+244.432+131.024C244.432+131.024+249.027+148.451+225.694+163.522C195.525+183.007+207.163+148.415+200.292+163.522C190.357+185.366+166.409+168.546+158.713+154.102C152.659+150.602+156.547+150.242+149.966+139.011C142.856+126.879+167.235+88.1126+174.904+105.304C177.08+110.18+170.612+124.759+172.75+125.05C176.169+125.515+187.983+108.356+189.752+99.064C191.208+91.4166+195.75+69.8274+200.84+58.4365C209.229+39.663+219.105+31.3281+219.105+31.3281C219.105+31.3281+196.963+43.9143+189.389+64.7076C181.467+86.4566+161.402+95.3527+156.433+99.4716C146.579+107.639+164.86+67.4421+165.844+65.6782C175.138+49.0159+131.491+116.757+133.249+126.438C131.099+130.766+128.221+126.305+125.128+124.873C116.409+145.463+115.316+172.961+115.316+172.961C114.771+186.114+114.942+206.703+118.552+204.597C119.54+204.021+120.787+195.122+122.347+191.891C121.612+183.371+131.561+178.607+134.861+191.285C137.845+202.753+174.94+219.109+174.94+219.109C174.94+219.109+164.976+211.118+163.103+202.777C160.433+190.889+166.811+178.291+178.697+187.097C188.113+194.074+195.869+197.337+202.49+218.108C212.878+250.701+181.092+267.509+185.202+251.372C187.483+242.415+181.833+270.748+153.527+268.151C141.011+267.003+152.767+234.634+152.767+234.634C148.316+243.76+131.733+261.858+134.305+283.273C138.314+316.671+142.336+352.651+142.336+352.651" vectornator:shadowOffset="15.1762" fill="url(#LinearGradient_25)" opacity="1" vectornator:shadowAngle="1.39917"/>
</g>
</svg>
